<svg xmlns="http://www.w3.org/2000/svg" viewBox="0 0 100 100">
  <!-- Background with gradient -->
  <defs>
    <linearGradient id="bgGradient" x1="0%" y1="0%" x2="100%" y2="100%">
      <stop offset="0%" style="stop-color:#3d2842;stop-opacity:1" />
      <stop offset="50%" style="stop-color:#2b1f35;stop-opacity:1" />
      <stop offset="100%" style="stop-color:#1f1428;stop-opacity:1" />
    </linearGradient>
  </defs>
  <rect width="100" height="100" rx="12" fill="url(#bgGradient)"/>

  <!-- Back page (furthest back) -->
  <rect x="23" y="20" width="54" height="64" rx="3" fill="#404040" opacity="0.5"/>
  <rect x="23" y="20" width="54" height="64" rx="3" fill="none" stroke="#606060" stroke-width="1"/>

  <!-- Middle page -->
  <rect x="26" y="16" width="54" height="64" rx="3" fill="#505050" opacity="0.7"/>
  <rect x="26" y="16" width="54" height="64" rx="3" fill="none" stroke="#707070" stroke-width="1"/>

  <!-- Front page -->
  <rect x="29" y="12" width="54" height="64" rx="3" fill="#e8e8e8"/>
  <rect x="29" y="12" width="54" height="64" rx="3" fill="none" stroke="#909090" stroke-width="1"/>

  <!-- Lines on front page to suggest text/content (in upper portion) -->
  <line x1="35" y1="20" x2="77" y2="20" stroke="#a0a0a0" stroke-width="1.5"/>
  <line x1="35" y1="25" x2="77" y2="25" stroke="#a0a0a0" stroke-width="1.5"/>
  <line x1="35" y1="30" x2="69" y2="30" stroke="#a0a0a0" stroke-width="1.5"/>

  <!-- StartOS logo centered in the empty space (between lines and bottom of page) -->
  <!-- Page center X: 56, empty space center Y: ~44 (midpoint between line end at 30 and page bottom at 76) -->
  <g transform="translate(39, 36) scale(0.025)">
    <!-- "A" shape -->
    <path d="M245.229 1154.11C218.012 1203.36 279.4 1235.04 304.523 1188.79C315.173 1169.19 641.573 388.267 681.128 296.285L1061.75 1185.9C1087.02 1239.85 1150.2 1200.35 1126.87 1149.29L719.161 220.202C699.384 177.981 658.308 177.981 640.052 221.71C638.53 224.726 260.899 1125.74 245.229 1154.11Z" fill="#1a1a1a"/>
    <!-- Circular border -->
    <path d="M173.678 1079.24C99.1497 984.791 52.8134 871.532 39.9236 752.308C27.0337 633.084 48.106 512.665 100.751 404.708C153.396 296.75 235.507 205.573 337.773 141.516C440.038 77.4585 558.367 43.0845 679.34 42.2916C800.313 41.4988 919.089 74.3187 1022.2 137.03C1125.31 199.741 1208.63 289.834 1262.71 397.092C1316.79 504.35 1339.47 624.482 1328.17 743.864C1316.88 863.247 1272.05 977.103 1198.79 1072.52L1197.54 1071.58C1270.62 976.389 1315.33 862.81 1326.6 743.718C1337.87 624.627 1315.25 504.788 1261.3 397.791C1207.35 290.794 1124.24 200.921 1021.38 138.362C918.516 75.804 800.028 43.064 679.35 43.8549C558.672 44.6459 440.632 78.9361 338.615 142.837C236.599 206.738 154.688 297.693 102.171 405.388C49.6544 513.082 28.6335 633.208 41.4919 752.141C54.3504 871.075 100.574 984.058 174.92 1078.28L173.678 1079.24Z" stroke="#1a1a1a" stroke-width="65.4186" stroke-linejoin="round" fill="none"/>
    <!-- Bottom arc -->
    <path d="M393.951 1258.16C484.768 1302.62 583.891 1326.42 685.181 1325.58C786.471 1324.73 886.158 1302.21 976.206 1256.23L976.206 1254.3C886.377 1300.17 786.211 1323.17 685.167 1324.01C584.124 1324.86 484.546 1300.59 393.951 1256.23L393.951 1258.16Z" stroke="#1a1a1a" stroke-width="65.4186" stroke-linejoin="round" fill="none"/>
  </g>
</svg>
